# xmcd CD database file
#
# Track frame offsets:
#	150
#	16152
#	32455
#	49520
#	65620
#	88052
#	101182
#	117440
#	139455
#	153882
#	180410
#	194522
#
# Disc length: 2673 seconds
#
# Revision: 1
# Processed by: cddbd v1.4PL0 Copyright (c) Steve Scherf et al.
# Submitted via: CDex 1.40Release
#
DISCID=9e0a6f0c
DTITLE=Mitch Woods and His Rocket 88's - Jump for Joy
DYEAR=2001
DGENRE=Blues
TTITLE0=Jump in the Groove and Go
TTITLE1=Swingin' at the Savoy
TTITLE2=Broke
TTITLE3=Jive, Mr. Boogie
TTITLE4=Easy Street
TTITLE5=Walk Across Texas
TTITLE6=Golden Gate Jump
TTITLE7=Not a Bad Part of My Life (To Be Good)
TTITLE8=Palm Tree Tie
TTITLE9=Jump for Joy
TTITLE10=Straight Eight
TTITLE11=Dr. Daddy-O Signs Off
EXTD=YEAR: 2001 ID3G: 0
EXTT0=
EXTT1=
EXTT2=
EXTT3=
EXTT4=
EXTT5=
EXTT6=
EXTT7=
EXTT8=
EXTT9=
EXTT10=
EXTT11=
PLAYORDER=
